<?xml version="1.0" encoding="UTF-8"?><svg xmlns="http://www.w3.org/2000/svg" xmlns:xlink="http://www.w3.org/1999/xlink" height="64.1" preserveAspectRatio="xMidYMid meet" version="1.0" viewBox="1.4 0.9 63.3 64.1" width="63.3" zoomAndPan="magnify"><g><g id="change1_1"><path d="M48.3,7l-3.9,3.9L33,22.4L21.5,10.9L17.6,7H9.1v25l8.6,6.9v-20L33,33.7l15.3-14.8v20l8.6-6.9V7H48.3z" fill="#F26869"/></g><g id="change2_1"><path d="M63.9,64.2H2.1l28.3-22.6c1.5-1.2,3.7-1.2,5.3,0L63.9,64.2z" fill="#D3D6DE"/></g><g id="change3_1"><path d="M64.6,64.1V26.4c0-0.1,0-0.1,0-0.2c0-0.2-0.1-0.3-0.3-0.4l-6.6-5.3V7c0-0.4-0.3-0.8-0.8-0.8 c-5.1,0-12,0-17.1,0l-6.4-5.1c-0.3-0.2-0.7-0.2-0.9,0l-6.4,5.1c-5.9,0-11,0-17,0H9C8.6,6.3,8.3,6.6,8.3,7v13.5L8,20.8l-6.4,5.1 c0,0-0.1,0.1-0.1,0.1c-0.1,0.1-0.1,0.2-0.1,0.3c0,0,0,0.1,0,0.2v37.8c0,0,0,0,0,0c0,0,0,0.1,0,0.1c0,0,0,0.1,0,0.1 c0,0.1,0.1,0.2,0.1,0.2c0,0,0.1,0.1,0.1,0.1c0,0,0,0,0,0c0,0,0.1,0.1,0.2,0.1c0,0,0,0,0,0C2,65,2,65,2.1,65h61.8c0,0,0,0,0,0 c0.1,0,0.2,0,0.3-0.1c0.1,0,0.1-0.1,0.2-0.1c0.2-0.1,0.3-0.3,0.3-0.6C64.6,64.2,64.6,64.2,64.6,64.1z M62.7,26.4l-4.9,4v-7.9 l4,3.2L62.7,26.4z M33,2.7l4.5,3.6h-9L33,2.7z M39.4,7.8c0.3,0.1-1.1,0,7.1,0L33,21.4L19.5,7.8H39.4z M17.3,7.8L32.5,23 c0.3,0.3,0.8,0.3,1.1,0L48.6,7.8h7.5v23.9c-0.1,0.1-7.5,6-7.1,5.6V18.9c0-0.3-0.2-0.6-0.5-0.7c-0.1,0-0.2-0.1-0.3-0.1 c-0.2,0-0.4,0.1-0.5,0.2L33,32.6L18.2,18.4c-0.2-0.2-0.5-0.3-0.8-0.1c-0.3,0.1-0.5,0.4-0.5,0.7v18.4c-0.1-0.1-4.5-3.6-4.3-3.4 l-2.8-2.3V7.8H17.3z M40.2,44.4l-4.1-3.3c-1.8-1.4-4.4-1.4-6.2,0l-4.1,3.3l-7.4-5.9V20.7l14.1,13.6c0.3,0.3,0.8,0.3,1,0l14.1-13.6 v17.8L40.2,44.4z M8.3,22.5v7.9l-4.9-4L8.3,22.5z M24.5,45.3L2.9,62.7V28C2.7,27.8,24.1,45,24.5,45.3z M4.3,63.5 c0.1-0.1,26.7-21.3,26.6-21.3c1.2-1,3.1-1,4.3,0c0.1,0.1,5.4,4.3,5.1,4v0l21.5,17.2H4.3z M41.4,45.3c0.1-0.1,21.9-17.5,21.7-17.4 v34.7L41.4,45.3z" fill="#010101"/></g></g></svg>