<?xml version="1.0" encoding="UTF-8" standalone="no"?><svg xmlns="http://www.w3.org/2000/svg" xmlns:xlink="http://www.w3.org/1999/xlink" fill="#f4001d" height="3798.4" preserveAspectRatio="xMidYMid meet" version="1" viewBox="1228.9 660.9 2541.6 3798.4" width="2541.6" zoomAndPan="magnify"><g id="change1_1"><path d="M3770.4,3869.9l-0.1-1.8l-0.1-3.6c-0.1-3-0.2-6.1-0.3-9.1c-0.2-3-0.5-6-0.7-9l-0.4-4.5c-0.1-1.5-0.4-3-0.6-4.4 c-0.4-2.9-0.8-5.9-1.2-8.8c-0.2-1.5-0.4-2.9-0.7-4.4l-0.9-4.3c-0.6-2.9-1.2-5.8-1.8-8.7c-0.3-1.4-0.7-2.9-1-4.3l-1.1-4.2 c-6-22.6-14.8-43.8-25.4-63.2c-10.6-19.4-23-37.1-36.3-53.2c-13.3-16.1-27.6-30.8-42.3-44.2c-14.8-13.4-30-25.8-45.5-37.2 c-3.8-2.9-7.8-5.6-11.7-8.4c-3.9-2.7-7.8-5.5-11.8-8c-4-2.6-7.9-5.2-11.8-7.8c-4-2.5-8-4.9-11.9-7.4c-15.9-9.7-31.9-18.9-48-27.2 c-8-4.3-16.1-8.2-24.1-12.2c-4-2-8.1-3.9-12.1-5.8c-4-1.9-8-3.9-12-5.6c-32.2-14.7-64.2-27.5-95.8-39c-31.6-11.5-63-21.4-93.7-30.5 c-7.7-2.2-15.3-4.4-23-6.5c-7.6-2.1-15.2-4.1-22.7-6.2c-7.6-1.9-15.1-3.9-22.5-5.8c-7.5-1.8-14.9-3.7-22.3-5.5 c-59.1-14.1-115.6-25.1-168.9-33.8c-13.1-2.2-26.1-4.2-38.9-6.1c-2.5,3.8-5.1,7.5-7.6,11.2c14.3,2.9,28.9,5.9,43.7,9.3 c52.4,11.6,107.6,26.2,164.7,44.4c7.1,2.3,14.3,4.7,21.5,7c7.2,2.5,14.4,4.9,21.7,7.4c7.2,2.6,14.5,5.2,21.8,7.8 c7.3,2.7,14.6,5.5,21.9,8.3c29.3,11.3,58.8,23.7,88.4,37.6c29.5,13.9,59,29.2,88,46.1c3.7,2.1,7.2,4.3,10.8,6.5 c3.6,2.2,7.2,4.3,10.8,6.6c7.1,4.6,14.3,9,21.3,13.8c14.2,9.4,28,19.4,41.6,29.8c3.4,2.6,6.7,5.3,10.1,7.9c3.3,2.7,6.6,5.4,9.9,8.2 c3.3,2.7,6.5,5.5,9.7,8.4c3.2,2.8,6.5,5.6,9.6,8.6c12.7,11.5,24.6,23.7,35.7,36.5c11.1,12.8,21.4,26.1,30.4,40 c9,13.9,16.6,28.4,22.5,43.1c5.9,14.7,10,29.8,12,44.8l0.4,2.8c0.1,0.9,0.3,1.9,0.3,2.8l0.4,5.6l0.2,2.8c0.1,0.9,0,1.9,0.1,2.8 l0.1,5.6c0,0.9,0.1,1.9,0,2.8l-0.1,2.8l-0.2,5.6c0,1.9,0-1-0.1,0l-0.2,1.8l-0.3,3.6l-0.3,3.6l-0.2,1.8c-0.1,0.6-0.1,1.3-0.2,1.7 c-0.3,1.5-0.7,3.1-0.9,4.6l-0.4,2.3l-0.2,1.2l-0.3,1.4l-1.3,5.4l-0.6,2.7l-0.8,2.7l-1.6,5.4l-0.4,1.3c-0.1,0.4-0.3,0.9-0.5,1.3 l-1,2.7l-1.9,5.3l-2.2,5.3c-6,14-13.9,27.6-23.3,40.8c-9.5,13.1-20.5,25.7-32.7,37.8c-12.2,12-25.6,23.5-39.9,34.3 c-14.3,10.9-29.4,21.2-45.1,31c-15.7,9.8-32.2,19-49.1,27.8c-16.9,8.7-34.2,17.1-52,24.9l-6.6,3l-6.7,2.8c-4.5,1.9-9,3.8-13.5,5.7 c-4.5,1.8-9.1,3.7-13.7,5.5c-2.3,0.9-4.6,1.8-6.9,2.7l-6.9,2.6c-9.2,3.6-18.6,6.9-27.8,10.3c-4.7,1.6-9.4,3.3-14.1,4.9 c-2.4,0.8-4.7,1.6-7.1,2.4l-7.1,2.3c-18.9,6.4-38.2,12.2-57.6,17.8c-38.9,11.1-78.5,21.2-118.7,30c-40.2,8.8-81,16.7-122.2,23.4 c-82.4,13.5-166.3,23.3-250.9,29.6c-84.6,6.3-169.9,9.5-255.3,9.4c-85.4-0.1-170.7-3.2-255.3-9.7c-84.6-6.4-168.5-16.3-250.8-29.8 c-82.3-13.6-163.1-31.1-240.8-53.5c-19.4-5.7-38.7-11.5-57.6-17.9l-7.1-2.3c-2.4-0.8-4.7-1.6-7.1-2.4c-4.7-1.6-9.4-3.3-14.1-4.9 c-4.7-1.7-9.3-3.4-14-5.1c-4.7-1.7-9.3-3.4-13.9-5.2c-4.6-1.8-9.2-3.5-13.8-5.3c-4.6-1.8-9.1-3.7-13.6-5.5c-4.5-1.8-9-3.8-13.5-5.7 l-6.7-2.8l-6.6-3c-4.4-2-8.9-3.9-13.3-5.9c-4.4-2-8.7-4.1-13.1-6.1c-4.3-2.1-8.6-4.2-12.9-6.3c-4.3-2.1-8.5-4.3-12.7-6.5 c-16.9-8.7-33.3-17.9-49-27.7c-15.7-9.8-30.8-20-45.1-30.9c-14.2-10.9-27.6-22.3-39.8-34.3c-12.2-12-23.2-24.6-32.6-37.7 c-18.9-26.2-31.3-54.3-35.6-83.6l-0.6-5.5l-0.3-2.8l-0.2-1.4c-0.1-0.7-0.1,1.8-0.1-0.2c-0.1-2.4-0.1-4.9-0.2-7.3l-0.1-3.6 c0-0.7,0-1.1,0-1.4l0-1.2c0-1.6,0.1-3.1,0-4.7l0-1.2c0-0.4,0-0.8,0-1.3l0.2-2.8l0.4-5.6c0-0.9,0.2-1.9,0.3-2.8l0.4-2.8 c2-14.9,6.1-29.9,12-44.7c5.9-14.7,13.5-29.1,22.4-43c9-13.9,19.2-27.2,30.3-40c5.5-6.4,11.4-12.6,17.3-18.7c3-3,6.1-6,9.1-9 c3.1-3,6.2-5.8,9.3-8.8c3.1-3,6.3-5.7,9.5-8.6c3.2-2.8,6.4-5.7,9.7-8.4c3.3-2.7,6.6-5.5,9.9-8.2c3.4-2.6,6.7-5.3,10.1-7.9 c13.6-10.4,27.4-20.4,41.6-29.8c7-4.8,14.2-9.3,21.3-13.8c3.6-2.3,7.2-4.4,10.8-6.6c3.6-2.2,7.2-4.4,10.8-6.5 c29-17,58.5-32.3,88-46.2c29.5-13.9,59.1-26.3,88.3-37.6c7.3-2.8,14.6-5.6,21.9-8.3c7.3-2.6,14.6-5.2,21.8-7.8 c7.3-2.5,14.5-5,21.6-7.5c7.2-2.4,14.4-4.7,21.5-7c57.1-18.3,112.3-32.8,164.7-44.5c7.1-1.6,14.2-3.1,21.2-4.6 c-2.9-4.1-5.8-8.2-8.7-12.4c-5.1,0.8-10.2,1.6-15.3,2.5c-53.3,8.7-109.8,19.7-168.9,33.8c-29.6,7.1-59.8,15-90.5,24 c-30.7,9-62.1,19-93.7,30.4c-31.7,11.4-63.7,24.3-95.9,38.9c-4,1.8-8,3.7-12.1,5.6c-4,1.9-8.1,3.8-12.1,5.8c-8,4-16.1,7.9-24.1,12.2 c-16.1,8.3-32.1,17.5-48,27.2c-4,2.5-7.9,4.9-11.9,7.4c-3.9,2.6-7.9,5.2-11.8,7.8c-4,2.6-7.9,5.3-11.8,8c-3.9,2.7-7.9,5.4-11.7,8.4 c-15.6,11.3-30.8,23.7-45.6,37.2c-14.8,13.5-29,28.1-42.4,44.3c-13.3,16.1-25.7,33.8-36.3,53.3c-10.6,19.4-19.4,40.7-25.4,63.3 l-1.1,4.2c-0.4,1.4-0.8,2.8-1,4.3c-0.6,2.9-1.2,5.8-1.8,8.7l-0.9,4.4c-0.2,0.7-0.3,1.5-0.4,2.3l-0.3,2.4c-0.4,3.2-0.9,6.5-1.3,9.7 l-0.3,2.4c-0.1,0.8-0.2,1.7-0.2,2.2l-0.3,3.6c-0.2,2.4-0.4,4.8-0.7,7.3c0-0.7-0.2,3-0.2,3.5l0,2.3l-0.1,4.5c0,3-0.1,6-0.1,9.1 c0.4,24.2,4.3,48.5,11,71.8c6.7,23.3,16.3,45.6,27.8,66.4c11.5,20.8,24.8,40.2,39.3,58.3c14.5,18.1,30.2,34.9,46.7,50.7 c16.5,15.8,33.7,30.5,51.4,44.5c17.7,14,36.1,26.9,54.8,39.3c4.7,3.1,9.4,6.2,14.1,9.2c4.7,3,9.5,6,14.2,8.9 c4.8,2.9,9.6,5.8,14.4,8.6c2.4,1.5,4.8,2.8,7.2,4.2l7.3,4.2l7.3,4.2l7.4,4c4.9,2.7,9.8,5.4,14.8,8c5,2.6,9.9,5.2,14.9,7.7 c5,2.6,10,5,15,7.5c10,5.1,20.1,9.7,30.2,14.5c5.1,2.3,10.2,4.6,15.3,6.9c2.6,1.1,5.1,2.3,7.7,3.4l7.7,3.3 c20.5,9,41.3,17.3,62.2,25.4c41.9,15.9,84.5,30.4,127.6,43.1c43.2,12.7,86.9,24.1,131,34c44.1,9.9,88.7,18.4,133.5,25.7 c11.2,1.8,22.4,3.5,33.7,5.2c11.2,1.6,22.5,3.2,33.8,4.7c22.5,3,45.1,5.6,67.8,8c90.6,9.4,181.8,14,273,14 c91.2-0.1,182.5-4.7,273-14.2c22.6-2.3,45.2-5.1,67.8-8c11.3-1.5,22.5-3.1,33.8-4.7c11.2-1.7,22.5-3.4,33.7-5.2 c44.8-7.3,89.3-15.9,133.4-25.8c88.2-19.9,174.8-45.2,258.5-77.1c5.2-2,10.4-4.1,15.7-6.1c5.2-2.1,10.4-4.1,15.6-6.3 c5.2-2.1,10.3-4.3,15.5-6.4c5.2-2.1,10.3-4.4,15.4-6.6l7.7-3.3c2.6-1.1,5.1-2.3,7.7-3.4c5.1-2.3,10.2-4.6,15.3-6.9 c10.1-4.8,20.2-9.5,30.2-14.5c20-9.9,39.8-20.4,59.2-31.4c4.8-2.8,9.7-5.5,14.5-8.4c4.8-2.9,9.6-5.8,14.4-8.6 c4.8-2.9,9.5-6,14.2-8.9c4.7-2.9,9.4-6.1,14.1-9.2c37.4-24.6,73.2-52.3,106.1-83.7c16.4-15.8,32.1-32.6,46.6-50.6 c14.5-18.1,27.8-37.4,39.3-58.2c11.4-20.8,21-43,27.7-66.2c0.8-2.9,1.7-5.8,2.5-8.7c0.7-3,1.4-5.9,2-8.9l1-4.4l0.5-2.2l0.4-2.3 c0.5-3,1-6,1.5-9l0.7-4.5l0.5-4.5c0.3-3,0.6-6,1-9l0.2-2.3l0.1-2.5l0.3-5c0.2-3.3,0.3-6.6,0.4-9.9 C3770.4,3871.1,3770.4,3870.6,3770.4,3869.9z" fill="inherit"/></g><g id="change1_2"><path d="M2463.9,3355.2c-7.9,0.1-17,0.3-27.4,0.5c-10.3,0.3-21.9,0.6-34.6,1.1c-12.7,0.5-26.6,1.1-41.5,1.9 c-30,1.6-64.4,4-102.8,7.7c-9.6,0.9-19.5,2-29.6,3c-10.1,1.1-20.4,2.3-31,3.6c-10.6,1.4-21.4,2.8-32.4,4.2 c-11,1.6-22.3,3.1-33.8,4.9c-26.8,4.1-54.7,8.8-83.7,14.3c107.8,152.4,208.4,282.1,281.6,373c78.8,98,139,167.8,165.7,198.2 c25.9-30.5,84.1-99.9,160.1-197.5c71.6-91.8,170.4-223.3,276.1-378c-21-3.8-41.5-7.1-61.3-10.1c-11.5-1.8-22.8-3.3-33.8-4.9 c-11.1-1.4-21.9-2.8-32.4-4.2c-10.6-1.2-20.9-2.5-31-3.5c-10.1-1-20-2.1-29.6-3c-38.4-3.7-72.8-6.1-102.8-7.7 c-15-0.9-28.8-1.4-41.5-1.9c-12.7-0.5-24.3-0.8-34.6-1.1c-10.3-0.2-19.5-0.4-27.4-0.5c-7.9-0.1-14.5-0.1-19.9-0.2 c-10.7-0.1-16.2-0.1-16.2-0.1s-5.5,0-16.2,0.1C2478.4,3355,2471.8,3355,2463.9,3355.2z" fill="inherit"/><path d="M2474.7,660.9c-618.6,0-1121.8,503.3-1121.8,1121.8c0,472.7,314.1,1045.8,577.5,1443.3c36.7,55.4,73.4,108.9,109.4,159.9 c82.1-11.6,155.3-18.4,217.7-22.8c9.6-0.6,19-1.3,28.1-1.8c9.1-0.5,18-1,26.6-1.5c17.2-0.9,33.3-1.7,48.3-2.2 c30-1.2,55.5-1.8,76.2-2.2c10.3-0.1,19.5-0.3,27.4-0.4c7.9-0.1,14.5-0.1,19.9-0.1c10.7,0,16.2-0.1,16.2-0.1s5.5,0,16.2,0.1 c5.3,0,12,0,19.9,0.1c7.9,0.1,17,0.2,27.4,0.4c10.3,0.2,21.9,0.4,34.6,0.8c12.7,0.4,26.6,0.7,41.6,1.4c15,0.6,31.1,1.4,48.3,2.2 c8.6,0.5,17.4,1,26.6,1.5c9.1,0.6,18.5,1.2,28.1,1.9c9.6,0.7,19.5,1.5,29.7,2.2c10.1,0.8,20.5,1.7,31.2,2.6c10.6,1,21.5,2,32.6,3.1 c5.6,0.6,11.2,1.2,16.8,1.8c5.7,0.6,11.4,1.1,17.2,1.8c21.4,2.4,43.7,5.1,66.7,8.1c33.6-49.4,67.9-101,102.1-154.5 c254.3-396.7,557.5-969.5,557.5-1445.6C3596.5,1164.2,3093.3,660.9,2474.7,660.9z M2974.8,2282.9 c-133.6,133.6-311.2,207.2-500.1,207.2c-188.9,0-366.5-73.6-500.1-207.2c-133.6-133.6-207.2-311.2-207.2-500.1 c0-188.9,73.6-366.5,207.2-500.1c133.6-133.6,311.2-207.2,500.1-207.2c188.9,0,366.5,73.6,500.1,207.2 c133.6,133.6,207.2,311.2,207.2,500.1C3182,1971.7,3108.4,2149.3,2974.8,2282.9z" fill="inherit"/></g></svg>